<?xml version="1.0" encoding="UTF-8" ?>
<svg version="1.1" width="163" height="123" xmlns="http://www.w3.org/2000/svg" shape-rendering="crispEdges">
<rect x="52" y="1" width="12" height="3" fill="#000000" />
<rect x="48" y="2" width="4" height="3" fill="#000000" />
<rect x="64" y="2" width="2" height="3" fill="#000000" />
<rect x="46" y="3" width="2" height="3" fill="#000000" />
<rect x="66" y="3" width="25" height="3" fill="#000000" />
<rect x="44" y="4" width="2" height="3" fill="#000000" />
<rect x="62" y="4" width="2" height="1" fill="#000000" />
<rect x="91" y="4" width="7" height="3" fill="#000000" />
<rect x="41" y="5" width="3" height="3" fill="#000000" />
<rect x="98" y="5" width="5" height="3" fill="#000000" />
<rect x="39" y="6" width="2" height="3" fill="#000000" />
<rect x="103" y="6" width="4" height="3" fill="#000000" />
<rect x="37" y="7" width="2" height="3" fill="#000000" />
<rect x="107" y="7" width="3" height="3" fill="#000000" />
<rect x="35" y="8" width="2" height="6" fill="#000000" />
<rect x="110" y="8" width="3" height="3" fill="#000000" />
<rect x="33" y="9" width="2" height="11" fill="#000000" />
<rect x="113" y="9" width="3" height="3" fill="#000000" />
<rect x="30" y="10" width="3" height="4" fill="#000000" />
<rect x="116" y="10" width="3" height="3" fill="#000000" />
<rect x="27" y="11" width="3" height="3" fill="#000000" />
<rect x="37" y="11" width="4" height="3" fill="#000000" />
<rect x="119" y="11" width="3" height="3" fill="#000000" />
<rect x="26" y="12" width="1" height="1" fill="#000000" />
<rect x="41" y="12" width="9" height="3" fill="#000000" />
<rect x="122" y="12" width="4" height="3" fill="#000000" />
<rect x="50" y="13" width="6" height="3" fill="#000000" />
<rect x="126" y="13" width="5" height="3" fill="#000000" />
<rect x="35" y="14" width="1" height="8" fill="#000000" />
<rect x="56" y="14" width="6" height="3" fill="#000000" />
<rect x="131" y="14" width="5" height="3" fill="#000000" />
<rect x="24" y="15" width="9" height="3" fill="#000000" />
<rect x="62" y="15" width="5" height="3" fill="#000000" />
<rect x="136" y="15" width="3" height="3" fill="#000000" />
<rect x="20" y="16" width="4" height="3" fill="#000000" />
<rect x="67" y="16" width="6" height="3" fill="#000000" />
<rect x="139" y="16" width="3" height="3" fill="#000000" />
<rect x="17" y="17" width="3" height="3" fill="#000000" />
<rect x="73" y="17" width="7" height="3" fill="#000000" />
<rect x="142" y="17" width="4" height="3" fill="#000000" />
<rect x="15" y="18" width="2" height="3" fill="#000000" />
<rect x="80" y="18" width="6" height="3" fill="#000000" />
<rect x="146" y="18" width="1" height="6" fill="#000000" />
<rect x="13" y="19" width="2" height="3" fill="#000000" />
<rect x="36" y="19" width="5" height="3" fill="#000000" />
<rect x="86" y="19" width="5" height="3" fill="#000000" />
<rect x="133" y="19" width="5" height="3" fill="#000000" />
<rect x="147" y="19" width="1" height="5" fill="#000000" />
<rect x="12" y="20" width="1" height="3" fill="#000000" />
<rect x="34" y="20" width="1" height="1" fill="#000000" />
<rect x="41" y="20" width="4" height="3" fill="#000000" />
<rect x="91" y="20" width="9" height="3" fill="#000000" />
<rect x="130" y="20" width="3" height="3" fill="#000000" />
<rect x="138" y="20" width="6" height="3" fill="#000000" />
<rect x="148" y="20" width="1" height="3" fill="#000000" />
<rect x="10" y="21" width="2" height="3" fill="#000000" />
<rect x="45" y="21" width="5" height="3" fill="#000000" />
<rect x="100" y="21" width="5" height="3" fill="#000000" />
<rect x="128" y="21" width="2" height="3" fill="#000000" />
<rect x="144" y="21" width="2" height="14" fill="#000000" />
<rect x="149" y="21" width="1" height="1" fill="#000000" />
<rect x="9" y="22" width="1" height="3" fill="#000000" />
<rect x="50" y="22" width="8" height="3" fill="#000000" />
<rect x="105" y="22" width="4" height="3" fill="#000000" />
<rect x="125" y="22" width="3" height="3" fill="#000000" />
<rect x="7" y="23" width="2" height="3" fill="#000000" />
<rect x="58" y="23" width="17" height="3" fill="#000000" />
<rect x="109" y="23" width="3" height="3" fill="#000000" />
<rect x="122" y="23" width="3" height="3" fill="#000000" />
<rect x="142" y="23" width="2" height="1" fill="#000000" />
<rect x="5" y="24" width="2" height="3" fill="#000000" />
<rect x="75" y="24" width="7" height="3" fill="#000000" />
<rect x="112" y="24" width="3" height="3" fill="#000000" />
<rect x="119" y="24" width="3" height="3" fill="#000000" />
<rect x="143" y="24" width="1" height="1" fill="#000000" />
<rect x="4" y="25" width="1" height="3" fill="#000000" />
<rect x="82" y="25" width="3" height="3" fill="#000000" />
<rect x="115" y="25" width="4" height="3" fill="#000000" />
<rect x="146" y="25" width="1" height="9" fill="#000000" />
<rect x="3" y="26" width="1" height="5" fill="#000000" />
<rect x="85" y="26" width="4" height="3" fill="#000000" />
<rect x="2" y="27" width="1" height="3" fill="#000000" />
<rect x="89" y="27" width="4" height="3" fill="#000000" />
<rect x="1" y="28" width="1" height="1" fill="#000000" />
<rect x="93" y="28" width="3" height="3" fill="#000000" />
<rect x="117" y="28" width="3" height="5" fill="#000000" />
<rect x="4" y="29" width="1" height="3" fill="#000000" />
<rect x="96" y="29" width="2" height="3" fill="#000000" />
<rect x="5" y="30" width="1" height="3" fill="#000000" />
<rect x="98" y="30" width="3" height="3" fill="#000000" />
<rect x="6" y="31" width="1" height="3" fill="#000000" />
<rect x="101" y="31" width="2" height="3" fill="#000000" />
<rect x="147" y="31" width="1" height="3" fill="#000000" />
<rect x="7" y="32" width="3" height="3" fill="#000000" />
<rect x="103" y="32" width="3" height="3" fill="#000000" />
<rect x="148" y="32" width="3" height="3" fill="#000000" />
<rect x="10" y="33" width="9" height="3" fill="#000000" />
<rect x="106" y="33" width="3" height="3" fill="#000000" />
<rect x="118" y="33" width="3" height="5" fill="#000000" />
<rect x="142" y="33" width="2" height="3" fill="#000000" />
<rect x="151" y="33" width="1" height="3" fill="#000000" />
<rect x="19" y="34" width="5" height="3" fill="#000000" />
<rect x="109" y="34" width="6" height="3" fill="#000000" />
<rect x="134" y="34" width="8" height="3" fill="#000000" />
<rect x="152" y="34" width="2" height="3" fill="#000000" />
<rect x="24" y="35" width="4" height="3" fill="#000000" />
<rect x="115" y="35" width="3" height="3" fill="#000000" />
<rect x="131" y="35" width="3" height="3" fill="#000000" />
<rect x="154" y="35" width="1" height="3" fill="#000000" />
<rect x="28" y="36" width="3" height="3" fill="#000000" />
<rect x="121" y="36" width="10" height="3" fill="#000000" />
<rect x="155" y="36" width="1" height="3" fill="#000000" />
<rect x="13" y="37" width="1" height="40" fill="#000000" />
<rect x="31" y="37" width="4" height="3" fill="#000000" />
<rect x="156" y="37" width="1" height="3" fill="#000000" />
<rect x="12" y="38" width="1" height="32" fill="#000000" />
<rect x="14" y="38" width="1" height="45" fill="#000000" />
<rect x="35" y="38" width="4" height="3" fill="#000000" />
<rect x="119" y="38" width="2" height="1" fill="#000000" />
<rect x="157" y="38" width="1" height="3" fill="#000000" />
<rect x="39" y="39" width="4" height="3" fill="#000000" />
<rect x="158" y="39" width="1" height="4" fill="#000000" />
<rect x="43" y="40" width="6" height="3" fill="#000000" />
<rect x="159" y="40" width="1" height="4" fill="#000000" />
<rect x="49" y="41" width="12" height="3" fill="#000000" />
<rect x="160" y="41" width="1" height="10" fill="#000000" />
<rect x="61" y="42" width="5" height="3" fill="#000000" />
<rect x="66" y="43" width="3" height="3" fill="#000000" />
<rect x="161" y="43" width="1" height="7" fill="#000000" />
<rect x="22" y="44" width="5" height="3" fill="#000000" />
<rect x="69" y="44" width="4" height="3" fill="#000000" />
<rect x="162" y="44" width="1" height="5" fill="#000000" />
<rect x="21" y="45" width="1" height="3" fill="#000000" />
<rect x="27" y="45" width="1" height="3" fill="#000000" />
<rect x="73" y="45" width="3" height="3" fill="#000000" />
<rect x="20" y="46" width="1" height="4" fill="#000000" />
<rect x="28" y="46" width="1" height="3" fill="#000000" />
<rect x="76" y="46" width="2" height="3" fill="#000000" />
<rect x="19" y="47" width="1" height="11" fill="#000000" />
<rect x="29" y="47" width="1" height="13" fill="#000000" />
<rect x="78" y="47" width="3" height="3" fill="#000000" />
<rect x="18" y="48" width="1" height="9" fill="#000000" />
<rect x="30" y="48" width="1" height="13" fill="#000000" />
<rect x="40" y="48" width="5" height="3" fill="#000000" />
<rect x="81" y="48" width="3" height="3" fill="#000000" />
<rect x="31" y="49" width="1" height="11" fill="#000000" />
<rect x="38" y="49" width="2" height="3" fill="#000000" />
<rect x="45" y="49" width="1" height="4" fill="#000000" />
<rect x="84" y="49" width="3" height="3" fill="#000000" />
<rect x="159" y="49" width="1" height="3" fill="#000000" />
<rect x="17" y="50" width="1" height="6" fill="#000000" />
<rect x="37" y="50" width="1" height="3" fill="#000000" />
<rect x="46" y="50" width="1" height="15" fill="#000000" />
<rect x="87" y="50" width="4" height="3" fill="#000000" />
<rect x="158" y="50" width="1" height="3" fill="#000000" />
<rect x="36" y="51" width="1" height="13" fill="#000000" />
<rect x="47" y="51" width="1" height="13" fill="#000000" />
<rect x="59" y="51" width="3" height="3" fill="#000000" />
<rect x="91" y="51" width="4" height="3" fill="#000000" />
<rect x="157" y="51" width="1" height="53" fill="#000000" />
<rect x="35" y="52" width="1" height="12" fill="#000000" />
<rect x="58" y="52" width="1" height="3" fill="#000000" />
<rect x="62" y="52" width="1" height="3" fill="#000000" />
<rect x="95" y="52" width="5" height="3" fill="#000000" />
<rect x="155" y="52" width="2" height="20" fill="#000000" />
<rect x="34" y="53" width="1" height="10" fill="#000000" />
<rect x="48" y="53" width="1" height="10" fill="#000000" />
<rect x="57" y="53" width="1" height="3" fill="#000000" />
<rect x="63" y="53" width="1" height="5" fill="#000000" />
<rect x="100" y="53" width="6" height="3" fill="#000000" />
<rect x="153" y="53" width="2" height="3" fill="#000000" />
<rect x="56" y="54" width="1" height="4" fill="#000000" />
<rect x="64" y="54" width="1" height="15" fill="#000000" />
<rect x="106" y="54" width="20" height="3" fill="#000000" />
<rect x="150" y="54" width="3" height="3" fill="#000000" />
<rect x="20" y="55" width="1" height="3" fill="#000000" />
<rect x="55" y="55" width="1" height="13" fill="#000000" />
<rect x="65" y="55" width="1" height="13" fill="#000000" />
<rect x="79" y="55" width="3" height="3" fill="#000000" />
<rect x="126" y="55" width="6" height="3" fill="#000000" />
<rect x="142" y="55" width="8" height="3" fill="#000000" />
<rect x="21" y="56" width="3" height="3" fill="#000000" />
<rect x="54" y="56" width="1" height="11" fill="#000000" />
<rect x="78" y="56" width="1" height="3" fill="#000000" />
<rect x="82" y="56" width="1" height="7" fill="#000000" />
<rect x="132" y="56" width="10" height="3" fill="#000000" />
<rect x="24" y="57" width="5" height="3" fill="#000000" />
<rect x="77" y="57" width="1" height="4" fill="#000000" />
<rect x="83" y="57" width="1" height="16" fill="#000000" />
<rect x="120" y="57" width="3" height="1" fill="#000000" />
<rect x="53" y="58" width="1" height="8" fill="#000000" />
<rect x="66" y="58" width="1" height="8" fill="#000000" />
<rect x="76" y="58" width="1" height="14" fill="#000000" />
<rect x="81" y="58" width="1" height="1" fill="#000000" />
<rect x="95" y="58" width="1" height="50" fill="#000000" />
<rect x="119" y="58" width="3" height="31" fill="#000000" />
<rect x="75" y="59" width="1" height="13" fill="#000000" />
<rect x="84" y="59" width="1" height="13" fill="#000000" />
<rect x="94" y="59" width="1" height="39" fill="#000000" />
<rect x="96" y="59" width="20" height="3" fill="#000000" />
<rect x="116" y="60" width="1" height="15" fill="#000000" />
<rect x="151" y="60" width="4" height="3" fill="#000000" />
<rect x="74" y="61" width="1" height="11" fill="#000000" />
<rect x="117" y="61" width="1" height="37" fill="#000000" />
<rect x="150" y="61" width="1" height="3" fill="#000000" />
<rect x="37" y="62" width="9" height="3" fill="#000000" />
<rect x="96" y="62" width="1" height="47" fill="#000000" />
<rect x="104" y="62" width="3" height="26" fill="#000000" />
<rect x="115" y="62" width="1" height="6" fill="#000000" />
<rect x="141" y="62" width="5" height="3" fill="#000000" />
<rect x="149" y="62" width="1" height="3" fill="#000000" />
<rect x="85" y="63" width="1" height="8" fill="#000000" />
<rect x="140" y="63" width="1" height="3" fill="#000000" />
<rect x="146" y="63" width="1" height="3" fill="#000000" />
<rect x="148" y="63" width="1" height="6" fill="#000000" />
<rect x="101" y="64" width="1" height="16" fill="#000000" />
<rect x="110" y="64" width="1" height="16" fill="#000000" />
<rect x="130" y="64" width="3" height="3" fill="#000000" />
<rect x="139" y="64" width="1" height="3" fill="#000000" />
<rect x="147" y="64" width="1" height="3" fill="#000000" />
<rect x="100" y="65" width="1" height="16" fill="#000000" />
<rect x="102" y="65" width="1" height="1" fill="#000000" />
<rect x="109" y="65" width="1" height="13" fill="#000000" />
<rect x="111" y="65" width="1" height="16" fill="#000000" />
<rect x="129" y="65" width="1" height="4" fill="#000000" />
<rect x="133" y="65" width="1" height="3" fill="#000000" />
<rect x="138" y="65" width="1" height="3" fill="#000000" />
<rect x="56" y="66" width="8" height="3" fill="#000000" />
<rect x="99" y="66" width="1" height="14" fill="#000000" />
<rect x="128" y="66" width="1" height="5" fill="#000000" />
<rect x="134" y="66" width="1" height="3" fill="#000000" />
<rect x="137" y="66" width="1" height="20" fill="#000000" />
<rect x="149" y="66" width="1" height="6" fill="#000000" />
<rect x="127" y="67" width="1" height="11" fill="#000000" />
<rect x="135" y="67" width="2" height="6" fill="#000000" />
<rect x="150" y="67" width="1" height="13" fill="#000000" />
<rect x="73" y="68" width="1" height="3" fill="#000000" />
<rect x="118" y="68" width="1" height="26" fill="#000000" />
<rect x="63" y="69" width="1" height="1" fill="#000000" />
<rect x="72" y="69" width="1" height="1" fill="#000000" />
<rect x="77" y="69" width="1" height="3" fill="#000000" />
<rect x="126" y="69" width="1" height="19" fill="#000000" />
<rect x="151" y="69" width="1" height="10" fill="#000000" />
<rect x="15" y="70" width="1" height="14" fill="#000000" />
<rect x="78" y="70" width="2" height="3" fill="#000000" />
<rect x="80" y="71" width="3" height="3" fill="#000000" />
<rect x="125" y="71" width="1" height="17" fill="#000000" />
<rect x="152" y="72" width="1" height="6" fill="#000000" />
<rect x="156" y="72" width="1" height="33" fill="#000000" />
<rect x="158" y="72" width="1" height="18" fill="#000000" />
<rect x="136" y="73" width="1" height="13" fill="#000000" />
<rect x="138" y="73" width="1" height="13" fill="#000000" />
<rect x="154" y="73" width="1" height="3" fill="#000000" />
<rect x="153" y="74" width="1" height="3" fill="#000000" />
<rect x="155" y="74" width="1" height="1" fill="#000000" />
<rect x="16" y="77" width="1" height="8" fill="#000000" />
<rect x="149" y="77" width="1" height="3" fill="#000000" />
<rect x="40" y="78" width="1" height="15" fill="#000000" />
<rect x="112" y="78" width="1" height="2" fill="#000000" />
<rect x="124" y="78" width="1" height="10" fill="#000000" />
<rect x="147" y="78" width="2" height="3" fill="#000000" />
<rect x="39" y="79" width="1" height="13" fill="#000000" />
<rect x="41" y="79" width="2" height="3" fill="#000000" />
<rect x="145" y="79" width="2" height="3" fill="#000000" />
<rect x="38" y="80" width="1" height="10" fill="#000000" />
<rect x="43" y="80" width="5" height="6" fill="#000000" />
<rect x="142" y="80" width="3" height="3" fill="#000000" />
<rect x="48" y="81" width="4" height="5" fill="#000000" />
<rect x="140" y="81" width="2" height="3" fill="#000000" />
<rect x="17" y="82" width="7" height="3" fill="#000000" />
<rect x="52" y="82" width="4" height="3" fill="#000000" />
<rect x="139" y="82" width="1" height="3" fill="#000000" />
<rect x="24" y="83" width="3" height="3" fill="#000000" />
<rect x="42" y="83" width="1" height="3" fill="#000000" />
<rect x="56" y="83" width="4" height="3" fill="#000000" />
<rect x="133" y="83" width="3" height="3" fill="#000000" />
<rect x="27" y="84" width="3" height="3" fill="#000000" />
<rect x="41" y="84" width="1" height="3" fill="#000000" />
<rect x="60" y="84" width="2" height="3" fill="#000000" />
<rect x="127" y="84" width="6" height="3" fill="#000000" />
<rect x="30" y="85" width="3" height="3" fill="#000000" />
<rect x="52" y="85" width="1" height="3" fill="#000000" />
<rect x="62" y="85" width="3" height="5" fill="#000000" />
<rect x="123" y="85" width="1" height="3" fill="#000000" />
<rect x="33" y="86" width="1" height="3" fill="#000000" />
<rect x="37" y="86" width="1" height="4" fill="#000000" />
<rect x="44" y="86" width="4" height="1" fill="#000000" />
<rect x="51" y="86" width="1" height="1" fill="#000000" />
<rect x="53" y="86" width="1" height="9" fill="#000000" />
<rect x="65" y="86" width="3" height="4" fill="#000000" />
<rect x="122" y="86" width="1" height="36" fill="#000000" />
<rect x="34" y="87" width="3" height="3" fill="#000000" />
<rect x="54" y="87" width="1" height="7" fill="#000000" />
<rect x="68" y="87" width="3" height="3" fill="#000000" />
<rect x="55" y="88" width="1" height="5" fill="#000000" />
<rect x="71" y="88" width="4" height="3" fill="#000000" />
<rect x="105" y="88" width="3" height="22" fill="#000000" />
<rect x="61" y="89" width="1" height="3" fill="#000000" />
<rect x="75" y="89" width="4" height="3" fill="#000000" />
<rect x="116" y="89" width="1" height="16" fill="#000000" />
<rect x="120" y="89" width="2" height="25" fill="#000000" />
<rect x="41" y="90" width="1" height="4" fill="#000000" />
<rect x="60" y="90" width="1" height="3" fill="#000000" />
<rect x="62" y="90" width="1" height="1" fill="#000000" />
<rect x="66" y="90" width="4" height="1" fill="#000000" />
<rect x="79" y="90" width="4" height="6" fill="#000000" />
<rect x="155" y="90" width="1" height="16" fill="#000000" />
<rect x="59" y="91" width="1" height="3" fill="#000000" />
<rect x="68" y="91" width="3" height="1" fill="#000000" />
<rect x="83" y="91" width="2" height="7" fill="#000000" />
<rect x="42" y="92" width="1" height="3" fill="#000000" />
<rect x="58" y="92" width="1" height="7" fill="#000000" />
<rect x="69" y="92" width="3" height="2" fill="#000000" />
<rect x="85" y="92" width="2" height="3" fill="#000000" />
<rect x="153" y="92" width="2" height="4" fill="#000000" />
<rect x="43" y="93" width="2" height="3" fill="#000000" />
<rect x="52" y="93" width="1" height="3" fill="#000000" />
<rect x="57" y="93" width="1" height="5" fill="#000000" />
<rect x="77" y="93" width="2" height="3" fill="#000000" />
<rect x="87" y="93" width="1" height="3" fill="#000000" />
<rect x="152" y="93" width="1" height="5" fill="#000000" />
<rect x="45" y="94" width="7" height="3" fill="#000000" />
<rect x="56" y="94" width="1" height="3" fill="#000000" />
<rect x="70" y="94" width="3" height="2" fill="#000000" />
<rect x="76" y="94" width="1" height="3" fill="#000000" />
<rect x="88" y="94" width="1" height="3" fill="#000000" />
<rect x="115" y="94" width="1" height="16" fill="#000000" />
<rect x="151" y="94" width="1" height="9" fill="#000000" />
<rect x="75" y="95" width="1" height="3" fill="#000000" />
<rect x="89" y="95" width="1" height="16" fill="#000000" />
<rect x="68" y="96" width="4" height="1" fill="#000000" />
<rect x="74" y="96" width="1" height="10" fill="#000000" />
<rect x="82" y="96" width="1" height="1" fill="#000000" />
<rect x="90" y="96" width="1" height="16" fill="#000000" />
<rect x="149" y="96" width="2" height="8" fill="#000000" />
<rect x="154" y="96" width="1" height="7" fill="#000000" />
<rect x="59" y="97" width="12" height="1" fill="#000000" />
<rect x="73" y="97" width="1" height="8" fill="#000000" />
<rect x="85" y="97" width="1" height="4" fill="#000000" />
<rect x="91" y="97" width="1" height="16" fill="#000000" />
<rect x="148" y="97" width="1" height="3" fill="#000000" />
<rect x="59" y="98" width="11" height="1" fill="#000000" />
<rect x="72" y="98" width="1" height="6" fill="#000000" />
<rect x="84" y="98" width="1" height="1" fill="#000000" />
<rect x="86" y="98" width="1" height="8" fill="#000000" />
<rect x="97" y="98" width="1" height="12" fill="#000000" />
<rect x="114" y="98" width="1" height="13" fill="#000000" />
<rect x="147" y="98" width="1" height="3" fill="#000000" />
<rect x="59" y="99" width="9" height="1" fill="#000000" />
<rect x="87" y="99" width="1" height="6" fill="#000000" />
<rect x="145" y="99" width="2" height="3" fill="#000000" />
<rect x="144" y="100" width="1" height="3" fill="#000000" />
<rect x="88" y="101" width="1" height="3" fill="#000000" />
<rect x="142" y="101" width="2" height="3" fill="#000000" />
<rect x="152" y="101" width="2" height="3" fill="#000000" />
<rect x="140" y="102" width="2" height="3" fill="#000000" />
<rect x="148" y="102" width="1" height="3" fill="#000000" />
<rect x="137" y="103" width="3" height="3" fill="#000000" />
<rect x="147" y="103" width="1" height="3" fill="#000000" />
<rect x="75" y="104" width="2" height="3" fill="#000000" />
<rect x="85" y="104" width="1" height="3" fill="#000000" />
<rect x="127" y="104" width="2" height="3" fill="#000000" />
<rect x="136" y="104" width="1" height="3" fill="#000000" />
<rect x="145" y="104" width="2" height="3" fill="#000000" />
<rect x="154" y="104" width="1" height="3" fill="#000000" />
<rect x="77" y="105" width="8" height="3" fill="#000000" />
<rect x="113" y="105" width="1" height="7" fill="#000000" />
<rect x="126" y="105" width="1" height="3" fill="#000000" />
<rect x="129" y="105" width="1" height="4" fill="#000000" />
<rect x="133" y="105" width="3" height="3" fill="#000000" />
<rect x="143" y="105" width="2" height="3" fill="#000000" />
<rect x="153" y="105" width="1" height="3" fill="#000000" />
<rect x="125" y="106" width="1" height="9" fill="#000000" />
<rect x="130" y="106" width="3" height="4" fill="#000000" />
<rect x="141" y="106" width="2" height="3" fill="#000000" />
<rect x="152" y="106" width="1" height="3" fill="#000000" />
<rect x="98" y="107" width="7" height="3" fill="#000000" />
<rect x="108" y="107" width="1" height="3" fill="#000000" />
<rect x="124" y="107" width="1" height="7" fill="#000000" />
<rect x="139" y="107" width="2" height="3" fill="#000000" />
<rect x="151" y="107" width="1" height="3" fill="#000000" />
<rect x="109" y="108" width="3" height="3" fill="#000000" />
<rect x="123" y="108" width="1" height="4" fill="#000000" />
<rect x="133" y="108" width="1" height="6" fill="#000000" />
<rect x="137" y="108" width="2" height="3" fill="#000000" />
<rect x="150" y="108" width="1" height="3" fill="#000000" />
<rect x="112" y="109" width="1" height="3" fill="#000000" />
<rect x="136" y="109" width="1" height="3" fill="#000000" />
<rect x="149" y="109" width="1" height="3" fill="#000000" />
<rect x="132" y="110" width="1" height="5" fill="#000000" />
<rect x="134" y="110" width="2" height="3" fill="#000000" />
<rect x="148" y="110" width="1" height="3" fill="#000000" />
<rect x="92" y="111" width="2" height="3" fill="#000000" />
<rect x="146" y="111" width="2" height="3" fill="#000000" />
<rect x="94" y="112" width="3" height="3" fill="#000000" />
<rect x="126" y="112" width="1" height="4" fill="#000000" />
<rect x="144" y="112" width="2" height="3" fill="#000000" />
<rect x="97" y="113" width="3" height="3" fill="#000000" />
<rect x="127" y="113" width="5" height="3" fill="#000000" />
<rect x="134" y="113" width="1" height="1" fill="#000000" />
<rect x="142" y="113" width="2" height="3" fill="#000000" />
<rect x="100" y="114" width="5" height="3" fill="#000000" />
<rect x="121" y="114" width="1" height="9" fill="#000000" />
<rect x="123" y="114" width="1" height="7" fill="#000000" />
<rect x="140" y="114" width="2" height="3" fill="#000000" />
<rect x="105" y="115" width="6" height="3" fill="#000000" />
<rect x="137" y="115" width="3" height="3" fill="#000000" />
<rect x="111" y="116" width="3" height="3" fill="#000000" />
<rect x="134" y="116" width="3" height="3" fill="#000000" />
<rect x="114" y="117" width="2" height="3" fill="#000000" />
<rect x="130" y="117" width="4" height="3" fill="#000000" />
<rect x="116" y="118" width="1" height="3" fill="#000000" />
<rect x="124" y="118" width="6" height="3" fill="#000000" />
<rect x="117" y="119" width="2" height="3" fill="#000000" />
<rect x="119" y="120" width="2" height="3" fill="#000000" />
</svg>